<svg width="1232" height="862" viewBox="0 0 1232 862" fill="none" xmlns="http://www.w3.org/2000/svg">
<path d="M293.55 677C294.88 674.02 295.75 670.86 295.97 667.47C298 636.73 265.79 641.72 246.72 632.76C228.91 624.39 228.16 604.98 226.89 587.86C225.2 564.94 223.67 548.71 207.88 530.39C174.17 491.27 182.12 448.54 164.26 403.11C152.72 373.76 125.54 351.01 95.71 340.29C86.87 337.11 76.58 334.71 65.74 337.91C46.03 343.72 35.45 364.77 37.1 380.16C38.75 395.54 48.27 408.07 51.16 423.07C54.05 438.07 47 458.75 28 467.33C18.47 471.63 5.61002 473.56 1.52002 481.66C-0.30998 485.28 0.56002 488.86 1.84002 491.97C7.50002 505.77 20.63 515.49 25.62 529.52C31.5 546.06 24.08 558.66 17.83 573.78C15.03 580.57 13.59 588.7 17.36 595.01C24.32 606.64 41.3 603.54 49.26 613.93C58.73 626.3 42.42 645.91 28.84 660.99C15.26 676.07 3.96002 698.96 19.8 705.79C24.73 707.92 31.19 707.67 36.98 708.49C63 712.15 71.85 735.63 77.67 756.63C83.95 779.27 108.32 786.64 124.79 800.03C143.36 815.12 149.29 844.72 180.31 831.76C201.55 822.89 211.21 800.27 223.24 782.33C236.42 762.67 250.45 743.24 258.82 720.91C265.34 704.31 286.32 693.21 293.55 677Z" fill="#E3E5FC"/>
<path d="M178.63 834.46C177.98 834.46 177.4 834.01 177.26 833.35L106.59 502.19C106.43 501.43 106.91 500.68 107.67 500.52C108.43 500.35 109.17 500.84 109.34 501.6L180.01 832.76C180.17 833.52 179.69 834.27 178.93 834.43C178.83 834.45 178.73 834.46 178.63 834.46Z" fill="white"/>
<path d="M133.61 616.9C133.53 616.9 133.44 616.89 133.36 616.88C132.6 616.74 132.09 616.01 132.23 615.25L144.87 544.86C145.01 544.1 145.74 543.6 146.5 543.73C147.26 543.87 147.77 544.6 147.63 545.36L134.99 615.75C134.87 616.42 134.28 616.9 133.61 616.9Z" fill="white"/>
<path d="M158.68 740.93C158.24 740.93 157.8 740.72 157.53 740.33L119.16 685.17C118.72 684.53 118.87 683.66 119.51 683.21C120.15 682.77 121.02 682.92 121.47 683.56L159.84 738.72C160.28 739.36 160.13 740.23 159.49 740.68C159.23 740.85 158.95 740.93 158.68 740.93Z" fill="white"/>
<path d="M712.88 861.95C996.959 861.95 1227.25 855.212 1227.25 846.9C1227.25 838.588 996.959 831.85 712.88 831.85C428.801 831.85 198.51 838.588 198.51 846.9C198.51 855.212 428.801 861.95 712.88 861.95Z" fill="#E3E5FC"/>
<path d="M831.36 786.59C828.29 780.61 825.74 774.06 826.19 767.35C827.01 755.16 837.1 746.01 845.8 737.43C854.5 728.85 863.05 717.25 859.76 705.48C856.6 694.17 844.27 688.65 833.83 683.28C823.39 677.91 812.22 668.37 814.52 656.86C817.82 640.37 845.02 637.8 847.97 621.24C849.04 615.25 846.36 609.29 843.76 603.78C834.87 584.99 825.98 566.2 817.09 547.41C813.02 538.81 809.37 527.42 816.18 520.78C820.77 516.31 827.98 516.41 833.99 514.21C849.59 508.49 854.27 489.23 857.85 473C861.43 456.78 869.77 437.65 886.34 436.45C892.72 435.99 898.96 438.52 904.47 441.78C926.32 454.71 939.8 480.59 937.88 505.91C937.06 516.75 933.96 528.85 940.36 537.64C943.69 542.21 948.97 544.84 953.63 548.03C971.47 560.22 981.33 583.13 977.91 604.46C975.58 619.02 967.82 634.52 974.66 647.58C982.32 662.19 1004.25 664.68 1011.52 679.48C1017.51 691.66 1010.7 706.14 1002.84 717.21C994.98 728.28 985.47 739.77 985.81 753.34C985.98 760.36 988.86 767.04 989.62 774.02C991.57 791.82 979.62 808.31 965.75 819.64C947.84 834.28 920.67 849.81 897.03 841.97C869.97 833 844.34 811.87 831.36 786.59Z" fill="#A7ADFF"/>
<path d="M919.35 845.49C918.63 845.49 918.01 844.93 917.95 844.2L896.33 576.42C896.27 575.65 896.85 574.97 897.62 574.91C898.48 574.88 899.07 575.42 899.13 576.2L920.75 843.98C920.81 844.75 920.23 845.43 919.46 845.49C919.43 845.49 919.39 845.49 919.35 845.49Z" fill="white"/>
<path d="M904.04 655.76C903.73 655.76 903.42 655.66 903.16 655.45C902.55 654.97 902.46 654.08 902.94 653.48L940.92 606.08C941.41 605.47 942.29 605.38 942.9 605.86C943.51 606.34 943.6 607.23 943.12 607.83L905.14 655.23C904.86 655.58 904.45 655.76 904.04 655.76Z" fill="white"/>
<path d="M913.11 748.16C912.8 748.16 912.49 748.06 912.23 747.85C911.62 747.37 911.53 746.48 912.01 745.88L949.99 698.48C950.48 697.87 951.36 697.78 951.97 698.26C952.58 698.74 952.67 699.63 952.19 700.23L914.21 747.63C913.93 747.98 913.52 748.16 913.11 748.16Z" fill="white"/>
<path d="M908.54 711.6C908.21 711.6 907.89 711.49 907.62 711.26L872.14 680.71C871.55 680.2 871.49 679.32 871.99 678.73C872.5 678.14 873.38 678.07 873.97 678.58L909.45 709.13C910.04 709.64 910.1 710.52 909.6 711.11C909.33 711.43 908.94 711.6 908.54 711.6Z" fill="white"/>
<path d="M923.88 772.84C921.98 768.9 920.03 764.73 920.37 760.37C920.85 754.28 925.62 749.47 930.4 745.66C941.27 736.99 953.78 730.31 963.49 720.35C973.2 710.39 979.82 695.63 975.11 682.55C971.4 672.25 961.26 664.4 960.59 653.47C959.69 639 975.21 629.63 982.5 617.1C988.57 606.67 988.79 593.94 992.47 582.45C996.15 570.96 1006.25 559.39 1018.12 561.55C1031.18 563.92 1035.81 580.25 1035.97 593.53C1036.13 606.81 1035.41 622.23 1045.53 630.82C1049.03 633.79 1053.59 635.62 1056.3 639.33C1058.76 642.71 1059.26 647.09 1059.69 651.25C1062.05 674.41 1063.91 699.74 1050.87 719.02C1047.89 723.43 1044.1 727.59 1043.06 732.82C1040.5 745.75 1055.75 757.05 1053.66 770.07C1051.88 781.11 1039.1 786.26 1032.39 795.21C1024.77 805.37 1025.42 820.02 1017.69 830.09C1006.17 845.1 973.46 848.16 958.36 836.79C941.25 823.89 932.77 791.23 923.88 772.84Z" fill="#F44E4E"/>
<path d="M977.6 845.57C977.53 845.57 977.45 845.56 977.37 845.55C976.61 845.42 976.09 844.7 976.21 843.93L1010.1 638.82C1010.22 638.06 1010.88 637.52 1011.72 637.66C1012.48 637.79 1013 638.51 1012.88 639.28L978.99 844.39C978.87 845.08 978.27 845.57 977.6 845.57Z" fill="white"/>
<path d="M1001.2 711.04C1000.88 711.04 1000.55 710.93 1000.29 710.71C999.7 710.2 999.63 709.32 1000.13 708.73L1033.64 669.4C1034.14 668.81 1035.03 668.74 1035.62 669.24C1036.21 669.74 1036.28 670.63 1035.78 671.22L1002.27 710.55C1001.99 710.87 1001.59 711.04 1001.2 711.04Z" fill="white"/>
<path d="M987.17 787.64C986.66 787.64 986.17 787.36 985.92 786.88L966.26 748.62C965.91 747.93 966.18 747.08 966.87 746.73C967.57 746.37 968.4 746.65 968.77 747.34L988.43 785.6C988.78 786.29 988.51 787.14 987.82 787.49C987.61 787.59 987.39 787.64 987.17 787.64Z" fill="white"/>
<path d="M1088.71 801.79C1093.79 795.3 1103.91 791.17 1103.37 782.95C1102.91 775.97 1094.27 770.66 1095.96 763.87C1097.56 757.48 1106.29 756.84 1112.84 757.61C1114.13 753.19 1113.16 748.49 1112.71 743.91C1112.26 739.33 1112.52 734.23 1115.65 730.85C1118.78 727.47 1125.58 727.65 1127.04 732.01C1129.36 725.46 1131.68 718.92 1134.01 712.37C1134.96 709.68 1136.35 706.6 1139.14 706.02C1143.21 705.17 1145.96 710.53 1145.32 714.64C1144.68 718.75 1142.27 722.56 1142.42 726.72C1142.61 732 1147.64 736.6 1152.92 736.33C1147.49 740.56 1141.49 747.63 1145.28 753.37C1147.19 756.26 1151.45 758.66 1150.19 761.88C1148.94 765.09 1143.17 764.8 1142.46 768.18C1141.5 772.68 1151.07 774.77 1149.27 779.01C1143.37 778.08 1138.27 785.91 1141.51 790.93C1145.07 796.45 1153.8 795.63 1158.55 800.17C1161.96 803.43 1162.49 808.85 1161.09 813.35C1155.59 831.05 1134.89 852.32 1115.47 845.37C1100.04 839.83 1073.94 820.64 1088.71 801.79Z" fill="#FDC510"/>
<path d="M1120.87 847.99C1120.84 847.99 1120.8 847.99 1120.76 847.99C1119.99 847.93 1119.41 847.26 1119.46 846.48L1126.75 749.21C1126.8 748.44 1127.38 747.87 1128.26 747.91C1129.03 747.97 1129.61 748.64 1129.56 749.42L1122.27 846.69C1122.22 847.42 1121.6 847.99 1120.87 847.99Z" fill="white"/>
<path d="M1123.93 807.15C1123.62 807.15 1123.3 807.05 1123.04 806.83L1105.15 792.25C1104.55 791.76 1104.46 790.88 1104.95 790.27C1105.44 789.67 1106.33 789.58 1106.93 790.07L1124.82 804.65C1125.42 805.14 1125.51 806.02 1125.02 806.63C1124.74 806.97 1124.34 807.15 1123.93 807.15Z" fill="white"/>
<path d="M1123.3 834.07C1122.89 834.07 1122.48 833.89 1122.21 833.55C1121.72 832.95 1121.82 832.06 1122.42 831.57L1150.68 808.75C1151.28 808.27 1152.16 808.36 1152.66 808.96C1153.15 809.56 1153.05 810.45 1152.45 810.94L1124.19 833.76C1123.92 833.97 1123.61 834.07 1123.3 834.07Z" fill="white"/>
<path d="M171.75 637.35C169.88 630.84 164.03 625.39 159.68 619.53C155.34 613.68 152.51 606.35 156.9 600.52C158.95 597.81 162.31 595.78 165.14 593.46C178.06 582.87 178.78 566.96 174.69 553.1C170.6 539.24 162.47 526.05 160.01 511.98C157.74 498.95 162.44 483.46 178.64 477.72C190.53 473.51 205.73 476.25 215.1 483.05C224.47 489.86 228.36 500 227.39 509.62C227 513.47 226.01 517.68 228.87 520.93C234.51 527.36 249.21 524.45 257.23 529.35C264.09 533.54 263.09 541.42 260.2 547.6C257.31 553.77 253.09 560.24 255.49 566.53C258.46 574.29 270.78 579.14 272.03 587.15C272.54 590.43 271.04 593.8 272.03 597.02C274.8 606.09 295.48 610.81 291.16 619.56C287.81 626.35 272.48 625.52 267.75 631.86C262.72 638.59 273.83 646.37 272.44 653.97C271.97 656.56 270.06 658.87 268.2 661.1C255.53 676.27 242.85 691.43 230.18 706.6C227.89 709.34 225.56 712.12 222.4 714.35C202.94 728.1 173.31 719.25 170 701.59C168.42 693.18 166.35 683.25 165.73 674.74C164.83 662.12 175.34 649.86 171.75 637.35Z" fill="#A7ADFF"/>
<rect x="209.971" y="572.594" width="2.80999" height="268.649" transform="rotate(-3.43409 209.971 572.594)" fill="#4B369D"/>
<rect x="215.033" y="649.782" width="60.742" height="2.81009" transform="rotate(-50.1277 215.033 649.782)" fill="#4B369D"/>
<rect x="183.668" y="676.361" width="2.81008" height="46.8313" transform="rotate(-48.0886 183.668 676.361)" fill="#4B369D"/>
<path d="M59.6501 827.75C56.1101 823.56 53.0701 818.72 52.2801 813.3C52.0901 811.99 52.0701 810.54 52.8601 809.48C53.5401 808.56 54.7001 808.12 55.8201 807.89C63.7601 806.19 71.2101 812.01 76.9501 817.76C87.0801 827.92 96.1201 839.16 103.87 851.23C99.2301 844.01 96.7901 830.16 97.8901 821.67C97.9301 821.34 98.0001 820.97 98.2601 820.76C98.5301 820.54 98.9101 820.56 99.2401 820.62C101.68 821.09 103.22 823.46 104.39 825.66C108.01 832.46 111.17 840.32 113.27 847.95C111.95 843.16 115.86 837.39 119.4 834.53C125.74 829.43 124.39 836.55 123.01 840.73C121.66 844.83 112.7 860.89 106.31 857.3C105.14 856.64 104.85 853.06 103.89 851.9C102.22 849.9 99.8901 849.24 97.4901 848.5C91.0501 846.5 84.3401 845.67 78.2701 842.53C71.1901 838.85 64.8001 833.84 59.6501 827.75Z" fill="#A7ADFF"/>
<path d="M820.86 840.54C821.67 832.28 821.65 824.62 824.36 816.56C825.27 813.84 826.57 810.94 829.15 809.7C829.64 809.46 830.22 809.3 830.71 809.52C831.14 809.71 831.41 810.14 831.63 810.57C845.67 837.47 807.99 852.6 790.8 832.37C789.74 831.12 788.74 829.69 788.59 828.05C788.32 825.05 791.18 822.46 794.17 822.11C797.16 821.76 800.09 823.12 802.56 824.83C809.1 829.36 813.45 836.34 817.61 843.11C811.81 834.39 808.82 823.84 809.17 813.38C809.22 811.81 809.75 809.8 811.32 809.67C812.07 809.61 812.76 810.04 813.36 810.5C817.64 813.79 820.05 819.06 820.95 824.39C821.85 829.71 821.38 835.16 820.86 840.54Z" fill="#F44E4E"/>
<path d="M237.33 794.09C237.71 794.1 238.09 794.2 238.48 794.41C239.7 795.07 240.15 796.57 240.44 797.93C243.09 810.36 243.02 807.31 241.7 823.62C244.48 813.44 243.38 815.22 248.58 806.03C249.59 804.24 250.71 802.41 252.46 801.34C263.81 794.39 252.82 825.18 250.9 828.71C243.78 841.81 229.93 845.05 216.49 840.23C204.7 836 193.44 826.82 189.22 814.81C188.84 813.73 188.56 812.37 189.37 811.55C189.93 810.99 190.8 810.91 191.59 810.9C198.71 810.89 205.38 814.51 210.83 819.09C216.27 823.68 220.78 829.26 225.9 834.2C229.53 837.7 237.54 837.5 242.54 838.1C251.05 839.13 254.41 835.83 261.8 831.48C263.41 830.53 265.17 829.67 267.04 829.69C268.91 829.71 270.89 830.88 271.24 832.72C271.45 833.81 271.07 834.93 270.59 835.94C264.54 848.72 248.05 847 240.78 836.8C233.85 827.07 229.38 810.87 232.7 799.2C233.37 796.84 235.23 794.05 237.33 794.09Z" fill="#FDC510"/>
<path d="M1207.41 814.09C1207.67 814.1 1207.94 814.16 1208.21 814.31C1209.06 814.77 1209.37 815.82 1209.57 816.77C1211.42 825.45 1211.37 823.32 1210.45 834.7C1212.39 827.59 1211.62 828.84 1215.25 822.42C1215.95 821.17 1216.74 819.89 1217.96 819.14C1225.88 814.29 1218.21 835.77 1216.87 838.24C1211.9 847.38 1202.23 849.65 1192.86 846.28C1184.63 843.33 1176.77 836.92 1173.83 828.54C1173.56 827.78 1173.37 826.84 1173.94 826.26C1174.33 825.87 1174.94 825.81 1175.49 825.81C1180.46 825.8 1185.12 828.33 1188.91 831.53C1192.7 834.73 1195.85 838.63 1199.43 842.08C1201.96 844.52 1207.55 844.38 1211.04 844.8C1216.98 845.52 1219.32 843.21 1224.48 840.18C1225.6 839.52 1226.83 838.91 1228.14 838.93C1229.44 838.94 1230.82 839.76 1231.07 841.04C1231.22 841.8 1230.95 842.58 1230.62 843.28C1226.4 852.2 1214.89 851 1209.82 843.88C1204.98 837.09 1201.87 825.78 1204.18 817.64C1204.65 816.01 1205.95 814.06 1207.41 814.09Z" fill="#A7ADFF"/>
<path d="M435.84 336.98L550.74 208.68L534.5 246.59L442.6 336.98H435.84Z" fill="#4B369D"/>
<path d="M499.24 467.84L422.27 438.22C408.84 433.05 402.08 417.83 407.25 404.4L429.59 346.34C434.76 332.91 449.98 326.15 463.41 331.32L540.38 360.94C553.81 366.11 560.57 381.33 555.4 394.76L533.06 452.82C527.89 466.25 512.68 473.01 499.24 467.84Z" fill="#4B369D"/>
<path d="M728.77 253.91L774.15 177.59C774.15 177.59 791.85 167.5 788.06 181.08C784.27 194.66 744.22 260.48 744.22 260.48L728.77 253.91Z" fill="#4B369D"/>
<path d="M600.43 192.79L586.91 236.21L549.08 240.76C549.08 240.76 577.49 215.7 580.82 187.81C584.16 159.93 600.43 192.79 600.43 192.79Z" fill="#D4A79A"/>
<path d="M654.06 110.52C654.06 110.52 659.05 122.37 643.99 151C628.94 179.63 610.45 202.66 601.73 198.49C577.61 186.97 573.25 166.76 568.34 149.11C562.33 127.47 595.46 86.81 595.46 86.81L618.49 81.02L654.06 110.52Z" fill="#EAC2AB"/>
<path d="M574.76 123.86C574.76 123.86 572.32 141.48 572.29 162.78C572.29 163.58 572.22 164.24 571.71 164.85C570.45 166.34 560.96 150.44 560.25 149.21C555.59 141.19 548.47 131.39 551.29 121.68C552.08 118.97 553.5 116.42 553.75 113.62C554.21 108.34 550.14 104.99 549.2 100.25C548.32 95.85 549.5 90.83 550.86 86.67C553.45 78.77 558.71 70.12 565.93 65.65C571.62 62.13 576.44 63.85 582.13 61.87C585.13 60.83 586.48 57.45 588.5 55C591.61 51.24 596.67 49.52 601.55 49.39C607.57 49.22 616.26 50.42 621.39 53.9C627.92 58.33 628.57 70.04 634.74 73.31C635.8 73.87 637.02 74 638.21 74.11C649.72 75.23 660.64 74.71 669.86 82.59C684.42 95.03 674.44 139.03 652.96 126.58C650.5 125.15 648.41 123.17 646.06 121.56C634.76 113.79 620.41 126.81 612.8 107.16C611.44 103.65 587.95 102.4 587.64 111.99C587.25 124.51 574.76 123.86 574.76 123.86Z" fill="#4B369D"/>
<path d="M579.99 123.57C579.99 123.57 573.31 110.62 570.24 127.02C567.17 143.42 574.78 148.89 574.78 148.89L579.99 123.57Z" fill="#EAC2AB"/>
<path d="M409.44 730.69L375.16 778.5L358 768.68L396.73 720.92C396.73 720.93 406.87 724.94 409.44 730.69Z" fill="#D4A79A"/>
<path d="M417.91 837.73C417.05 838.75 410.46 837.2 409.46 837.05C399.14 835.52 383.2 833.69 375.31 826.29C367.63 819.08 363.71 808.2 357.24 799.97C352.68 794.18 346.33 790.08 340.56 785.56C334.2 780.57 353.64 750.98 361.29 757.52C367.48 762.82 362.21 773.85 379.98 775.2C395.2 776.36 382.17 796.24 397.54 811.86C411.12 825.68 427.28 826.6 417.91 837.73Z" fill="#F3AA02"/>
<path d="M515.82 532.6C504.19 574.07 510.95 574.75 482.31 607.1C468.34 622.88 390.98 688.04 376.58 703.46C356.04 725.45 377.46 735.56 392.7 742C402.67 746.21 408.62 768.12 423.77 751.99C425.27 750.4 451.35 716.73 459.18 701.98C468.14 685.09 519.53 638.89 537.24 622.65C579.4 584 558.09 565.43 583.89 514.83C593.71 495.56 591.53 475.05 594.44 452.89C596.22 439.33 575.53 375.86 546.75 387.08C528.84 394.07 535.68 430.4 536.44 444.73C536.97 454.64 538.4 465.57 535.94 475.16C530.89 494.84 521.32 513.01 515.82 532.6Z" fill="#4B369D"/>
<path d="M606.71 751.91L619.72 811.1L600.38 817.48L590.47 754.91C590.48 754.92 600.53 749.91 606.71 751.91Z" fill="#EAC2AB"/>
<path d="M698.92 834.43C698.92 834.43 684.45 839.37 656.71 841.43C628.97 843.49 598.01 844.52 592.39 840.4C586.76 836.28 583.14 801.29 592.39 801.29C601.64 801.29 605.23 814.67 621.54 802.73C635.51 792.5 646.67 811.79 670.99 816.93C695.31 822.07 705.15 824.13 698.92 834.43Z" fill="#FDC510"/>
<path d="M655.63 774.96C654.7 772.79 652.26 771.17 650.14 769.48C630.77 754.04 640.88 730.6 638.6 709.91C631.49 645.45 643.73 607.74 619.49 541.89C602.99 497.08 598.54 467.51 594.55 417.73C593.16 400.45 627.39 378.12 601.28 383.06C588.91 385.4 576.7 384.94 564.37 382.78C557.88 381.64 564.5 379.53 557.88 381.64C535.33 388.84 518.55 429.21 518.27 444.76C517.64 479.62 544.4 502.5 551.71 532.99C564.55 586.54 584.73 624.42 579.46 668.48C576.88 690.07 573.88 711.6 571 733.15C569.32 745.72 558.81 773.26 565.86 784.64C575.54 800.26 618.67 787.02 633.08 786.67C643.91 786.4 658.79 782.33 655.63 774.96Z" fill="#5A54FF"/>
<path d="M606.46 300.54C599.92 274 607.02 229.36 588.31 209.67C586.39 207.65 584.36 205.66 581.82 204.51C558.31 193.92 544.13 213.22 534.02 229.95C523.9 246.7 524.13 264.82 519.19 283.6C513.57 304.95 514.7 327.15 514.3 349.19C514.05 362.61 515.69 375.94 514.93 389.38C514.4 398.76 513.07 408.08 510.93 417.22C509.51 423.3 501.56 435.37 503.88 441.56C505.72 446.46 514.14 444.61 518.28 444.75C534.29 445.28 549.98 440.53 564.22 433.49C577.23 427.06 590.98 427.31 605.99 426.07C613.44 425.45 623.1 419.03 619.73 405.49C611.74 373.4 614.07 345.29 610.77 322.63C609.69 315.31 608.27 307.9 606.46 300.54Z" fill="#D7384E"/>
<path d="M564.74 243.97C564.74 243.97 598.21 320.34 614.49 330.63C630.77 340.92 644.87 339.45 673.57 320.66C702.28 301.87 728.09 279.43 730.82 276.87C733.55 274.31 757.09 271.51 759.15 261.35C761.21 251.19 770.16 218.32 761.54 224.77C752.92 231.22 745.49 252.5 738.31 252.87C731.13 253.24 741.3 230.89 734.77 234.49C728.24 238.09 727.78 244.01 725.43 249.04C723.08 254.07 726.18 259.74 711.91 272.24C697.64 284.74 650.97 317.37 637.54 314.94C624.11 312.5 574.91 240.13 572.9 234.59C570.88 229.06 564.74 243.97 564.74 243.97Z" fill="#EAC2AB"/>
<path d="M610.87 269.11C610.87 269.11 590.53 208.23 566.35 220.5C542.17 232.77 578.04 297.46 578.04 297.46L617.32 276.8L610.87 269.11Z" fill="#F44E4E"/>
<path d="M791.32 63.96C793.8 67.95 798.35 70.57 802.21 68.72C797.84 74.27 799.08 89.9 797.92 97.39C820.48 80.59 843.06 63.43 869.64 64.5C873.94 64.67 878.69 64.93 882.05 61.73C883.63 60.22 884.72 58.09 885.62 55.92C891.51 41.7 890.57 24.98 889.5 9.17001C889.31 6.43001 888.93 3.28001 886.97 1.83001C885.85 1.00001 884.47 0.940007 883.15 0.930007C860.47 0.790007 838.19 8.94001 815.47 7.09001C808.25 6.50001 794.92 -1.36999 788.45 3.36001C782.72 7.56001 783.39 19.05 783.81 25.82C784.51 37.18 785.5 54.57 791.32 63.96Z" fill="#E3E5FC"/>
<path fill-rule="evenodd" clip-rule="evenodd" d="M884.18 106.28L883.4 110.46L888.11 107.53C909.73 94.02 932.2 80.09 957.94 80.93C962.41 81.09 967.5 81.26 971.33 78.19C973.32 76.61 974.55 74.42 975.41 72.69C981.7 59.97 980.47 44.75 979.47 32.53C979.31 30.51 979 26.76 976.06 24.94C974.55 24 972.87 23.92 971.27 23.91C961.21 23.7959 951.43 25.1194 941.827 26.419C941.331 26.4861 940.835 26.5532 940.34 26.62L940.248 26.6323C928.277 28.2385 915.909 29.8978 903.71 29.07C901.46 28.92 898.4 28.08 895.17 27.19C888.32 25.3 880.55 23.16 875.58 26.22C868.85 30.36 869.63 41.04 870.05 46.78L870.08 47.18C870.78 56.87 871.85 71.52 877.92 79.72C879.93 82.43 883.26 84.63 886.79 84.94C885.284 88.889 885.022 94.2204 884.782 99.0796L884.78 99.12C884.774 99.245 884.767 99.3697 884.761 99.494C884.629 102.095 884.505 104.533 884.18 106.28ZM891.67 83.88L897.48 77.69L889.61 80.85C886.5 82.1 882.82 80.05 880.92 77.49C875.49 70.16 874.47 56.16 873.8 46.9L873.77 46.5C873.4 41.55 872.73 32.35 877.52 29.41C881.087 27.2081 887.989 29.106 894.083 30.7815L894.15 30.8L894.241 30.8247C897.637 31.7556 900.833 32.6315 903.43 32.81C916.04 33.66 928.64 31.97 940.82 30.33L941.128 30.2885C950.991 28.9615 961.106 27.6005 971.23 27.65C972.34 27.66 973.39 27.7 974.07 28.12C975.24 28.85 975.56 30.81 975.72 32.83L975.724 32.8734C976.673 44.6359 977.853 59.2545 972.03 71.03C971.34 72.41 970.38 74.14 968.97 75.26C966.216 77.4556 962.087 77.3205 957.816 77.1808L957.79 77.18C931.9 76.32 909.73 89.62 888.31 102.98C888.39 101.81 888.45 100.58 888.51 99.31C888.79 93.64 889.14 86.58 891.67 83.88Z" fill="#E3E5FC"/>
<path d="M822.93 109.79C825.41 113.13 829.96 115.33 833.82 113.78C829.45 118.43 830.69 131.53 829.53 137.8C852.09 123.72 874.67 109.34 901.25 110.23C905.55 110.37 910.3 110.59 913.66 107.91C915.24 106.65 916.33 104.86 917.23 103.04C923.12 91.1201 922.18 77.1101 921.11 63.8601C920.92 61.5601 920.54 58.9301 918.58 57.7101C917.46 57.0201 916.08 56.9701 914.76 56.9601C892.08 56.8501 869.8 63.6801 847.08 62.1201C839.86 61.6301 826.53 55.0301 820.06 58.9901C814.33 62.5101 815 72.1401 815.42 77.8201C816.12 87.3501 817.11 101.92 822.93 109.79Z" fill="#A7ADFF"/>
<path d="M770.09 136.94C769.86 130.66 769.54 124.03 766.14 118.75C764.84 116.72 763.03 114.91 760.74 114.16C758.73 113.5 756.56 113.7 754.46 113.91C744.74 114.88 735.03 115.85 725.31 116.82C720.23 117.33 715.03 117.87 710.43 120.07C705.83 122.28 701.86 126.53 701.45 131.62C701.16 135.21 702.65 138.72 704.51 141.8C705.83 143.99 707.37 146.07 709.32 147.72C714.03 151.7 720.57 152.74 726.73 152.59C732.89 152.44 739.02 151.27 745.18 151.5C752.01 151.75 761.24 157.87 766.93 158.23C778.51 158.98 770.32 143.2 770.09 136.94Z" fill="#E3E5FC"/>
<path d="M884.44 131.49C887.47 129.89 891.08 129.98 894.51 130.11C917.44 130.95 940.37 131.79 963.3 132.64C964.72 132.69 966.19 132.76 967.44 133.44C969.69 134.66 970.5 137.44 971.05 139.94C972.8 147.82 974.06 155.81 974.82 163.84C975.04 166.21 975.2 168.73 974.14 170.87C972.14 174.88 966.93 175.79 962.47 176.22C944.88 177.9 927.22 179.58 909.57 178.71C901.91 178.33 894.2 177.48 886.58 178.4C878.82 179.34 860.54 188.51 853.37 184.86C848.18 182.22 853.64 179.32 857.25 176.05C863.96 169.99 870.36 164.45 873.86 155.84C876.92 148.28 876.22 135.82 884.44 131.49Z" fill="#E3E5FC"/>
<path d="M828.06 212.68C833.66 214.29 838.67 217.5 844.2 219.33C851.4 221.7 859.15 221.62 866.73 221.52C880.38 221.34 894.02 221.15 907.67 220.97C911.49 220.92 915.81 221.08 918.35 223.92C920.01 225.78 920.5 228.38 920.92 230.84C922.24 238.5 923.56 246.15 924.87 253.81C925.57 257.87 926.17 262.42 923.78 265.78C921.1 269.55 915.86 270.2 911.25 270.52C891.62 271.87 872 273.23 852.37 274.58C850.52 274.71 848.54 274.81 846.93 273.89C845.45 273.04 844.54 271.47 843.76 269.95C840.47 263.54 838.09 256.67 836.71 249.6C835.72 244.52 835.2 239.2 832.72 234.66C828.85 227.59 831.14 227.27 827.47 221.02C822.14 211.93 822.58 211.1 828.06 212.68Z" fill="#E3E5FC"/>
<path d="M999.03 94.53C1002.19 95.44 1005.03 97.26 1008.16 98.29C1012.23 99.63 1016.61 99.59 1020.9 99.53C1028.62 99.43 1036.34 99.32 1044.05 99.22C1046.21 99.19 1048.65 99.28 1050.09 100.89C1051.03 101.94 1051.31 103.41 1051.55 104.8C1052.3 109.13 1053.04 113.46 1053.79 117.79C1054.19 120.09 1054.52 122.66 1053.17 124.56C1051.66 126.69 1048.69 127.06 1046.08 127.24C1034.98 128.01 1023.88 128.77 1012.78 129.54C1011.73 129.61 1010.61 129.67 1009.7 129.15C1008.86 128.67 1008.35 127.78 1007.91 126.92C1006.05 123.3 1004.7 119.41 1003.92 115.41C1003.36 112.53 1003.07 109.53 1001.66 106.96C999.47 102.96 1000.76 102.78 998.69 99.25C995.68 94.1 995.93 93.64 999.03 94.53Z" fill="#A7ADFF"/>
<path d="M902.64 161.9C905.661 161.9 908.11 159.451 908.11 156.43C908.11 153.409 905.661 150.96 902.64 150.96C899.619 150.96 897.17 153.409 897.17 156.43C897.17 159.451 899.619 161.9 902.64 161.9Z" fill="#4B369D"/>
<path d="M925.5 161.9C928.521 161.9 930.97 159.451 930.97 156.43C930.97 153.409 928.521 150.96 925.5 150.96C922.479 150.96 920.03 153.409 920.03 156.43C920.03 159.451 922.479 161.9 925.5 161.9Z" fill="#4B369D"/>
<path d="M949.41 161.9C952.431 161.9 954.88 159.451 954.88 156.43C954.88 153.409 952.431 150.96 949.41 150.96C946.389 150.96 943.94 153.409 943.94 156.43C943.94 159.451 946.389 161.9 949.41 161.9Z" fill="#4B369D"/>
<path d="M1015.28 119.08C1017.27 119.08 1018.88 117.468 1018.88 115.48C1018.88 113.492 1017.27 111.88 1015.28 111.88C1013.29 111.88 1011.68 113.492 1011.68 115.48C1011.68 117.468 1013.29 119.08 1015.28 119.08Z" fill="white"/>
<path d="M1030.34 119.08C1032.33 119.08 1033.94 117.468 1033.94 115.48C1033.94 113.492 1032.33 111.88 1030.34 111.88C1028.35 111.88 1026.74 113.492 1026.74 115.48C1026.74 117.468 1028.35 119.08 1030.34 119.08Z" fill="white"/>
<path d="M1046.08 119.08C1048.07 119.08 1049.68 117.468 1049.68 115.48C1049.68 113.492 1048.07 111.88 1046.08 111.88C1044.09 111.88 1042.48 113.492 1042.48 115.48C1042.48 117.468 1044.09 119.08 1046.08 119.08Z" fill="white"/>
<path d="M871.6 30.89H802.24C801.12 30.89 800.2 29.97 800.2 28.85V21.3C800.2 20.18 801.12 19.26 802.24 19.26H871.6C872.72 19.26 873.64 20.18 873.64 21.3V28.85C873.64 29.97 872.72 30.89 871.6 30.89Z" fill="white"/>
<path d="M871.6 50H831.9C830.78 50 829.86 49.08 829.86 47.96V40.41C829.86 39.29 830.78 38.37 831.9 38.37H871.6C872.72 38.37 873.64 39.29 873.64 40.41V47.96C873.64 49.08 872.72 50 871.6 50Z" fill="white"/>
<path d="M883.97 74.21H830.42C829.3 74.21 828.38 73.29 828.38 72.17V71.13C828.38 70.01 829.3 69.09 830.42 69.09H883.97C885.09 69.09 886.01 70.01 886.01 71.13V72.17C886.01 73.29 885.09 74.21 883.97 74.21Z" fill="white"/>
<path d="M906.64 87.21H830.42C829.3 87.21 828.38 86.29 828.38 85.17V84.19C828.38 83.07 829.3 82.15 830.42 82.15H906.64C907.76 82.15 908.68 83.07 908.68 84.19V85.17C908.69 86.29 907.77 87.21 906.64 87.21Z" fill="white"/>
<path d="M906.64 99.58H830.42C829.3 99.58 828.38 98.66 828.38 97.54V96.56C828.38 95.44 829.3 94.52 830.42 94.52H906.64C907.76 94.52 908.68 95.44 908.68 96.56V97.54C908.69 98.66 907.77 99.58 906.64 99.58Z" fill="white"/>
<path d="M890.29 262.47H873.84C869.63 262.47 866.18 259.02 866.18 254.81V238.36C866.18 234.15 869.63 230.7 873.84 230.7H890.29C894.5 230.7 897.95 234.15 897.95 238.36V254.81C897.95 259.02 894.5 262.47 890.29 262.47Z" fill="white"/>
<path d="M883.31 248.55H880.81C877.96 248.55 875.62 246.22 875.62 243.36V240.86C875.62 238.01 877.95 235.67 880.81 235.67H883.31C886.16 235.67 888.5 238 888.5 240.86V243.36C888.5 246.22 886.16 248.55 883.31 248.55Z" fill="#4B369D"/>
<path d="M882.06 248.64C877.42 248.64 873.62 252.44 873.62 257.08H890.49C890.5 252.44 886.7 248.64 882.06 248.64Z" fill="#4B369D"/>
<path d="M752.46 139.63H729.04C724.83 139.63 721.38 136.18 721.38 131.97V108.55C721.38 104.34 724.83 100.89 729.04 100.89H752.46C756.67 100.89 760.12 104.34 760.12 108.55V131.97C760.12 136.19 756.68 139.63 752.46 139.63Z" fill="#A7ADFF"/>
</svg>
